<svg xmlns="http://www.w3.org/2000/svg" viewBox="0 0 400 400"><defs/><style>line{stroke-width:1;stroke:#87ceeb;stroke-opacity:.1;vector-effect:non-scaling-stroke}.b{stroke-width:1.3;stroke-opacity:.2}.a{stroke-width:1.5;stroke-opacity:.3}</style><line y2="400" class="a"/><line x1="8" x2="8" y2="400"/><line x1="16" x2="16" y2="400"/><line x1="24" x2="24" y2="400"/><line x1="32" x2="32" y2="400"/><line x1="40" x2="40" y2="400"/><line x1="48" x2="48" y2="400"/><line x1="56" x2="56" y2="400"/><line x1="64" x2="64" y2="400"/><line x1="72" x2="72" y2="400"/><line x1="80" x2="80" y2="400" class="b"/><line x1="88" x2="88" y2="400"/><line x1="96" x2="96" y2="400"/><line x1="104" x2="104" y2="400"/><line x1="112" x2="112" y2="400"/><line x1="120" x2="120" y2="400"/><line x1="128" x2="128" y2="400"/><line x1="136" x2="136" y2="400"/><line x1="144" x2="144" y2="400"/><line x1="152" x2="152" y2="400"/><line x1="160" x2="160" y2="400" class="b"/><line x1="168" x2="168" y2="400"/><line x1="176" x2="176" y2="400"/><line x1="184" x2="184" y2="400"/><line x1="192" x2="192" y2="400"/><line x1="200" x2="200" y2="400"/><line x1="208" x2="208" y2="400"/><line x1="216" x2="216" y2="400"/><line x1="224" x2="224" y2="400"/><line x1="232" x2="232" y2="400"/><line x1="240" x2="240" y2="400" class="b"/><line x1="248" x2="248" y2="400"/><line x1="256" x2="256" y2="400"/><line x1="264" x2="264" y2="400"/><line x1="272" x2="272" y2="400"/><line x1="280" x2="280" y2="400"/><line x1="288" x2="288" y2="400"/><line x1="296" x2="296" y2="400"/><line x1="304" x2="304" y2="400"/><line x1="312" x2="312" y2="400"/><line x1="320" x2="320" y2="400" class="b"/><line x1="328" x2="328" y2="400"/><line x1="336" x2="336" y2="400"/><line x1="344" x2="344" y2="400"/><line x1="352" x2="352" y2="400"/><line x1="360" x2="360" y2="400"/><line x1="368" x2="368" y2="400"/><line x1="376" x2="376" y2="400"/><line x1="384" x2="384" y2="400"/><line x1="392" x2="392" y2="400"/><line x1="400" x2="400" y2="400" class="a"/><line x2="400" class="a"/><line x2="400" y1="8" y2="8"/><line x2="400" y1="16" y2="16"/><line x2="400" y1="24" y2="24"/><line x2="400" y1="32" y2="32"/><line x2="400" y1="40" y2="40"/><line x2="400" y1="48" y2="48"/><line x2="400" y1="56" y2="56"/><line x2="400" y1="64" y2="64"/><line x2="400" y1="72" y2="72"/><line x2="400" y1="80" y2="80" class="b"/><line x2="400" y1="88" y2="88"/><line x2="400" y1="96" y2="96"/><line x2="400" y1="104" y2="104"/><line x2="400" y1="112" y2="112"/><line x2="400" y1="120" y2="120"/><line x2="400" y1="128" y2="128"/><line x2="400" y1="136" y2="136"/><line x2="400" y1="144" y2="144"/><line x2="400" y1="152" y2="152"/><line x2="400" y1="160" y2="160" class="b"/><line x2="400" y1="168" y2="168"/><line x2="400" y1="176" y2="176"/><line x2="400" y1="184" y2="184"/><line x2="400" y1="192" y2="192"/><line x2="400" y1="200" y2="200"/><line x2="400" y1="208" y2="208"/><line x2="400" y1="216" y2="216"/><line x2="400" y1="224" y2="224"/><line x2="400" y1="232" y2="232"/><line x2="400" y1="240" y2="240" class="b"/><line x2="400" y1="248" y2="248"/><line x2="400" y1="256" y2="256"/><line x2="400" y1="264" y2="264"/><line x2="400" y1="272" y2="272"/><line x2="400" y1="280" y2="280"/><line x2="400" y1="288" y2="288"/><line x2="400" y1="296" y2="296"/><line x2="400" y1="304" y2="304"/><line x2="400" y1="312" y2="312"/><line x2="400" y1="320" y2="320" class="b"/><line x2="400" y1="328" y2="328"/><line x2="400" y1="336" y2="336"/><line x2="400" y1="344" y2="344"/><line x2="400" y1="352" y2="352"/><line x2="400" y1="360" y2="360"/><line x2="400" y1="368" y2="368"/><line x2="400" y1="376" y2="376"/><line x2="400" y1="384" y2="384"/><line x2="400" y1="392" y2="392"/><line x2="400" y1="400" y2="400" class="a"/></svg>