<svg xmlns="http://www.w3.org/2000/svg" xml:space="preserve" viewBox="0 0 99.999997 99.999997"><path fill="#3ea8ff" d="M15.10517794 85.00000013H29.9246051c.7845579 0 1.48194272-.4358655 1.91780822-1.0460772L72.6394246 16.91780824c.5230386-.871731-.0871731-1.91780822-1.13325031-1.91780822H57.47130502c-.6973848 0-1.30759651.3486924-1.65628891.95890411L14.40779313 83.77957672c-.2615193.5230386.0871731 1.22042341.6973848 1.22042341zm51.08343718-1.04607721 19.26525533-30.94645085c.6102117-.95890411-.0871731-2.17932753-1.22042342-2.17932753H70.28575087c-.5230386 0-1.04607721.2615193-1.30759651.6973848L49.18986043 83.16936502c-.5230386.78455791.0871731 1.83063512 1.04607721 1.83063512H64.4451531c.69738481 0 1.39476962-.3486924 1.74346203-1.0460772z" class="st0"/></svg>