<svg xmlns="http://www.w3.org/2000/svg" xml:space="preserve" viewBox="0 0 88.3 88.3"><path fill="#fff" d="M9.25517964 79.15000153H24.0746068c.7845579 0 1.48194272-.4358655 1.91780822-1.0460772L66.7894263 11.06780964c.5230386-.871731-.0871731-1.91780822-1.13325031-1.91780822H51.62130673c-.69738481 0-1.30759652.3486924-1.65628892.95890411L8.55779483 77.92957812c-.2615193.5230386.0871731 1.22042341.6973848 1.22042341zm51.08343718-1.04607721 19.26525533-30.94645085c.6102117-.95890411-.0871731-2.17932753-1.22042342-2.17932753H64.43575257c-.5230386 0-1.04607721.2615193-1.30759651.6973848L43.33986213 77.31936642c-.5230386.78455791.0871731 1.83063512 1.04607721 1.83063512H58.5951548c.69738481 0 1.39476962-.3486924 1.74346202-1.0460772z" class="st0"/></svg>