<svg version="1" xmlns="http://www.w3.org/2000/svg" width="933.333" height="933.333" viewBox="0 0 700.000000 700.000000"><path d="M298 2c-69.9 11.8-138.1 58.7-183 125.5-29 43.3-49.5 92.5-57.9 139.2-6.8 38-7.5 78.9-2 128.1l2.2 19.2-2.3 12.2c-1.8 9.6-2.1 14.2-1.7 21.3 1.9 27.9 19.1 58.6 41.3 73.4 9.3 6.2 17 9.1 26.1 9.8 8.7.7 9.2 1.1 13.8 12.2 12.5 30.2 39.9 67.4 67 91.1 34 29.8 68.8 49 111.8 61.7 11.5 3.4 13.2 3.6 29.7 4.1 20.2.5 33.2-.7 50-4.9 71-17.3 139.7-72.5 169.2-135.9 13.7-29.5 11.5-26.6 22.8-29 20.5-4.5 42.1-22.7 52.7-44.3 8.2-16.7 10.8-28.6 10-46-.7-17.7-4.2-27.1-15.7-42.3l-5.3-6.8.7-12.6c1.6-31.7 1.8-55.2.7-70-2.2-28.6-6.5-53.2-13.7-79.4-26.8-97.2-84.1-173-147.6-195.4-12.7-4.5-22.4-6.2-39.9-7.1l-15.7-.8-9.8-5.6c-18-10.2-31.1-15.2-48.3-18.1-13-2.2-41-2-55.1.4zm50 287.8c0 1-2.5 11-5.5 22.3-9.2 34-11.2 45.9-8.5 51 3.9 7.1 24.2-7.1 56.8-39.8 14.8-14.9 18.2-17.9 18.2-15.9 0 1.3-1.8 9.7-3.9 18.7-5.3 22.1-6.6 31-5.1 35.4 1 3.1 1.5 3.5 4.7 3.5 4.8 0 8.6-2.3 36.3-22.4 36.2-26.1 45.5-33.1 57.1-43.2l10.7-9.2 8.7 22.1c10.8 27.3 24.2 63.1 32.8 87.8 10.2 29 14.3 53.3 13.5 79.7-.8 24.8-5.9 44.5-17.8 68.7-12.2 25-27.3 46-47.4 66-24.5 24.4-52.5 42.7-84.1 55.1-36.5 14.2-67.8 15.7-105.3 4.8-41.6-12.1-94.3-47-121.1-80.4-27.7-34.4-44.8-73.9-51.8-119-2.4-16-2.4-51 0-67 2.5-16.5 9.5-44.5 11.1-44.5.4 0 1.7 1.8 2.9 3.9 7.1 12.6 13.1 9.4 31-16.3 5.1-7.4 9.7-13.6 10.2-13.8.6-.2 1 4.2 1 11.3 0 11.5 0 11.6 2.9 14 2.2 2 3.5 2.4 6 1.9 6.2-1.3 14.3-7.3 29.3-21.8 9.6-9.4 15.9-14.7 17-14.5 2.6.5 3.3 5.3 2.3 15.7-2.4 23.2-2.4 25.4-.3 28 1.9 2.3 2.3 2.4 6.1 1.3 9.1-2.8 27.9-19.7 64.6-58.1 14.2-14.9 26.2-27.1 26.7-27.1s.9.8.9 1.8zm275.7 126.8c9.5 16.7 9.4 37.1-.4 57.4-3.9 8.1-5.9 10.8-13.7 18.6-6.2 6.2-11.5 10.4-16.6 13.2-15.8 8.8-16.7 4-3.9-22 7.5-15 10.2-22.6 13.4-37.9 3.4-16.3 5.7-21.9 11.7-28.4 2.8-3.1 5.6-5.4 6.2-5.2.6.2 2.1 2.1 3.3 4.3zM80.9 432.3c2.2 3 5.3 6 7.2 6.7 4.3 1.8 9 9.2 20.3 32 10.3 20.8 16.8 38.2 14.9 40.1-5.4 5.4-36.5-20.6-44.8-37.5-4.6-9.1-6.8-21.2-6.1-32.3.4-7 2.5-14.3 4.1-14.3.2 0 2.2 2.4 4.4 5.3z"/><path d="M242.1 392.2c-6.5 3.4-8.6 6.7-8.6 13.8 0 4.8.4 6.3 2.5 8.5 8.7 9.5 27.7 6.1 31.1-5.5 3.8-12.6-12.4-23.4-25-16.8zM438.3 395c-7.2 3.2-10.3 11.2-6.9 17.9 1.9 3.6 8 8.9 11.2 9.7 4.3 1.1 12-.2 15.2-2.4 4.3-3.1 7.6-10.3 6.8-14.7-.8-4.3-5-9.4-9.3-11.1-4.6-2-12.1-1.7-17 .6zM337.6 447.3c-1.1.8-2 3.5-2.6 7.5-1 6.9-3.1 11-8.5 16.2-5 4.8-7.6 10.2-7.7 15.9 0 10.3 7.4 17.1 18.5 17.1 5.9 0 7.7-1.2 7.7-5.1 0-3.2-1.5-4.6-8.4-7.9-2.8-1.4-5.2-3.2-5.4-4.1-.2-.9 1.9-3.8 4.7-6.4 10.2-9.7 15.2-25.4 10.1-31.8-2.3-2.9-5.6-3.5-8.4-1.4zM285.5 557.6c-.9.9-1.5 2.8-1.3 4.3.4 3.5 7.2 6.7 33.8 16.2 28.3 10 27.4 10 54 1 22.5-7.6 31.4-11.2 34.2-13.8 2.5-2.3 2.3-6.9-.4-8.4-2.9-1.5-8.4-.3-32.3 7.4-17 5.5-19.9 6.1-27.5 6.2-7.8 0-9.9-.5-25.2-5.8-16.7-5.7-27.4-8.7-31.5-8.7-1.2 0-2.9.7-3.8 1.6z"/></svg>