<svg xmlns="http://www.w3.org/2000/svg" viewBox="0 0 80 80.01"><defs><linearGradient id="a" x1="87.54" x2="-4.58" y1="58.34" y2="24.81" gradientUnits="userSpaceOnUse"><stop offset=".35" stop-color="#4e8fdd"/><stop offset=".39" stop-color="#578bd3"/><stop offset=".44" stop-color="#7081ba"/><stop offset=".52" stop-color="#997190"/><stop offset=".61" stop-color="#d15a57"/><stop offset=".65" stop-color="#ef4f3a"/><stop offset=".99" stop-color="#f64e34"/></linearGradient></defs><path fill="none" d="M-1.49-1.59h459.84v82.65H-1.49z"/><path fill="url(#a)" d="M80.85 70.46c-.2-.48-.45-.93-.74-1.36-.29-.43-.61-.82-.98-1.18-.54-.54-1.16-1.01-1.84-1.38-.45-.25-.93-.45-1.43-.61-.25-.08-.51-.14-.77-.2-.52-.11-1.06-.16-1.61-.16-2.21 0-4.21.9-5.66 2.34v.01s-.02.01-.03.01c-2.1 1.79-3.32 3.63-10.31 3.63s-8.21-1.85-10.31-3.63c0 0-.02 0-.03-.01v-.01c0-.01 0 0-.01 0 0 0-.01-.02-.01-.03-1.79-2.1-3.63-3.32-3.63-10.31s1.85-8.21 3.63-10.31c0 0 0-.02.01-.03h.01c.24-.24.46-.5.67-.77.05-.07.1-.14.15-.2.2-.28.39-.56.55-.86.04-.08.07-.16.11-.23.02-.05.04-.09.07-.14.16-.34.31-.7.43-1.07.08-.25.14-.51.2-.77.05-.26.09-.53.12-.79.03-.27.04-.54.04-.82 0-.55-.06-1.09-.16-1.61-.05-.26-.12-.52-.2-.77-.16-.5-.36-.98-.61-1.43-.12-.23-.26-.45-.4-.66l-.15-.21c-.05-.07-.1-.14-.15-.2l-.15-.21c-.16-.2-.34-.39-.52-.57h-.01s-.01-.02-.01-.03c-1.79-2.1-3.63-3.32-3.63-10.31s1.85-8.21 3.63-10.31c0 0 0-.02.01-.03h.01c.01 0 0 0 0-.01 0 0 .02-.01.03-.01 2.1-1.79 3.32-3.63 10.31-3.63s8.21 1.85 10.31 3.63c0 0 .02 0 .03.01v.01c.18.18.37.35.57.52 1.19.98 2.66 1.62 4.27 1.79.27.03.54.04.82.04.55 0 1.09-.06 1.61-.16.26-.05.52-.12.77-.2.5-.16.98-.36 1.43-.61.3-.16.59-.35.87-.56.07-.05.14-.1.2-.15.95-.73 1.72-1.67 2.26-2.75.04-.08.08-.15.11-.23.15-.31.28-.63.38-.97.08-.25.14-.51.2-.77.11-.52.16-1.06.16-1.61s-.06-1.09-.16-1.61c-.11-.52-.26-1.02-.47-1.5-.2-.48-.45-.93-.74-1.36-.48-.71-1.07-1.33-1.75-1.85l-.21-.15c-.28-.2-.56-.39-.87-.55-.45-.25-.93-.45-1.43-.61-.25-.08-.51-.14-.77-.2-.52-.11-1.06-.16-1.61-.16-.28 0-.55.01-.82.04-1.61.16-3.09.81-4.27 1.79-.2.16-.39.34-.57.52v.01s-.02.01-.03.01c-2.1 1.79-3.32 3.63-10.31 3.63s-8.21-1.85-10.31-3.63c0 0-.02 0-.03-.01v-.01c-.24-.24-.51-.46-.78-.67-.07-.05-.13-.1-.2-.15-.28-.2-.56-.39-.86-.55-.08-.04-.16-.07-.23-.11-.08-.04-.15-.08-.23-.11-.31-.15-.63-.28-.97-.38-.25-.08-.51-.14-.77-.2-.52-.11-1.06-.16-1.61-.16s-1.09.06-1.61.16c-.26.05-.52.12-.77.2-.25.08-.5.17-.73.27-.23.1-.47.21-.7.34-.23.13-.45.26-.66.4l-.21.15c-.07.05-.14.1-.2.15l-.21.15c-.2.16-.39.34-.57.52v.01s-.02.01-.03.01c-2.1 1.79-3.32 3.63-10.31 3.63s-8.21-1.85-10.31-3.63c0 0-.02 0-.03-.01v-.01c-.18-.18-.37-.35-.57-.52-.46-.38-.97-.7-1.51-.97-.08-.04-.15-.08-.23-.11-.31-.15-.63-.28-.97-.38-.25-.08-.51-.14-.77-.2-.52-.11-1.06-.16-1.61-.16s-1.09.06-1.61.16c-.26.05-.52.12-.77.2-.25.08-.5.17-.73.27-.23.1-.47.21-.7.34-.23.12-.45.26-.66.4l-.21.15c-.07.05-.14.1-.2.15-.54.42-1.03.9-1.44 1.44L3 4.93c-.2.28-.39.56-.55.87-.04.08-.07.16-.11.23-.04.08-.08.15-.11.23-.15.31-.28.64-.38.97-.08.25-.14.51-.2.77-.11.52-.16 1.06-.16 1.61s.06 1.09.16 1.61c.11.52.26 1.02.47 1.5.2.48.45.93.74 1.36.14.21.3.42.46.62.16.2.34.39.52.57h.01s.01.02.01.03c1.79 2.1 3.63 3.32 3.63 10.31v8.26c-.13.03-.26.06-.38.1-.5.16-.98.36-1.43.61-.3.16-.59.35-.87.56-.07.05-.14.1-.2.15-.95.73-1.72 1.67-2.26 2.75-.04.08-.08.15-.11.23-.15.31-.28.63-.38.97-.08.25-.14.51-.2.77-.11.52-.16 1.06-.16 1.61s.06 1.09.16 1.61c.11.52.26 1.02.47 1.5.2.48.45.93.74 1.36.48.71 1.07 1.33 1.75 1.85.07.05.14.1.2.15.28.2.56.39.87.55.45.25.93.45 1.43.61.12.04.25.06.38.1v8.26c0 6.99-1.85 8.21-3.63 10.31 0 0 0 .02-.01.03h-.01c-.18.18-.35.37-.52.57a8.027 8.027 0 0 0-1.79 4.27c-.03.27-.04.54-.04.82 0 .55.06 1.09.16 1.61.05.26.12.52.2.77.16.5.36.98.61 1.43.16.3.35.59.56.87.05.07.1.14.15.2.73.95 1.67 1.72 2.75 2.26.08.04.15.08.23.11.31.15.63.28.97.38.25.08.51.14.77.2.52.11 1.06.16 1.61.16s1.09-.06 1.61-.16c.52-.11 1.02-.26 1.5-.47.48-.2.93-.45 1.36-.74.71-.48 1.33-1.07 1.85-1.75.05-.07.1-.14.15-.2.2-.28.39-.56.55-.87.25-.45.45-.93.61-1.43.08-.25.14-.51.2-.77.11-.52.16-1.06.16-1.61 0-.28-.01-.55-.04-.82-.16-1.61-.81-3.09-1.79-4.27-.16-.2-.34-.39-.52-.57h-.01s-.01-.02-.01-.03c-1.79-2.1-3.63-3.32-3.63-10.31v-8.26c1.15-.3 2.2-.83 3.09-1.56.2-.16.39-.34.57-.52v-.01s.02-.01.03-.01c2.1-1.79 3.32-3.63 10.31-3.63s8.21 1.85 10.31 3.63c0 0 .02 0 .03.01v.01h.01s.01.02.01.03c1.79 2.1 3.63 3.32 3.63 10.31s-1.85 8.21-3.63 10.31c0 0 0 .02-.01.03h-.01c-.23.23-.43.47-.63.72-.12.15-.24.3-.34.46-.19.28-.36.58-.51.89-.04.08-.08.15-.11.23-.15.31-.28.63-.38.97-.08.25-.14.51-.2.77-.11.52-.16 1.06-.16 1.61s.06 1.09.16 1.61c.05.26.12.52.2.77.08.25.17.5.27.73.1.23.21.47.34.7.12.23.26.45.4.66l.15.21c.05.07.1.14.15.2.21.27.43.53.67.77.24.24.5.46.77.67.07.05.14.1.2.15.07.05.13.11.21.15.11.07.22.13.33.19.11.07.21.15.33.21.08.04.16.07.23.11.08.04.15.08.23.11.31.15.63.28.97.38.25.08.51.14.77.2.52.11 1.06.16 1.61.16s1.09-.06 1.61-.16c.52-.11 1.02-.26 1.5-.47.48-.2.93-.45 1.36-.74.16-.11.31-.23.46-.34.25-.2.5-.41.72-.63v-.01s.02-.01.03-.01c2.1-1.79 3.32-3.63 10.31-3.63s8.21 1.85 10.31 3.63c0 0 .02 0 .03.01v.01c1.45 1.45 3.45 2.34 5.66 2.34.55 0 1.09-.06 1.61-.16.26-.05.52-.12.77-.2.5-.16.98-.36 1.43-.61.68-.37 1.3-.83 1.84-1.38.36-.36.69-.76.98-1.18.43-.64.77-1.34 1.01-2.09.08-.25.14-.51.2-.77.11-.52.16-1.06.16-1.61s-.06-1.09-.16-1.61c-.11-.52-.26-1.02-.47-1.5zM15.17 35.94s-.02 0-.03-.01v-.01c-.18-.18-.37-.35-.57-.52a7.927 7.927 0 0 0-3.09-1.56v-8.26c0-6.99 1.85-8.21 3.63-10.31 0 0 0-.02.01-.03h.01c.01 0 0 0 0-.01 0 0 .02-.01.03-.01 2.1-1.79 3.32-3.63 10.31-3.63s8.21 1.85 10.31 3.63c0 0 .02 0 .03.01v.01c0 .01 0 0 .01 0 0 0 .01.02.01.03 1.79 2.1 3.63 3.32 3.63 10.31s-1.85 8.21-3.63 10.31c0 0 0 .02-.01.03h-.01c-.01 0 0 0 0 .01 0 0-.02.01-.03.01-2.1 1.79-3.32 3.63-10.31 3.63s-8.21-1.85-10.31-3.63z" transform="translate(-1.49 -1.59)"/></svg>