<svg xmlns="http://www.w3.org/2000/svg" fill="none" viewBox="0 0 38.285 34.08"><path fill="#157577" d="m32.6789 20.4241-7.1626-1.7892c-1.491-4.909-6.0521-8.4832-11.4496-8.4832-3.3058 0-6.2978 1.3405-8.4633 3.5075C4.25 15.011 2.3828 15.846.3195 15.846c-.0937 0-.1874-.0029-.2812-.0057A19.7662 19.7662 0 0 0 0 17.0402c0 5.1817 2.0604 9.8819 5.4046 13.3283 2.1797 2.2862 5.2541 3.7119 8.6621 3.7119 3.3044 0 6.2964-1.339 8.4605-3.5046z"/><path fill="#309da5" d="M32.8792 3.709C30.7009 1.4244 27.6265 0 24.2185 0c-3.3044 0-6.295 1.339-8.4605 3.5046L5.7256 13.537c-.0142.0142-.0284.027-.0426.0412-.034.0355-.0696.0696-.1037.1037-.9386.9287-2.12 1.6117-3.442 1.9411.2442.4743.5083.9372.7894 1.3888v.0014c.0625.1009.1264.2003.1917.2997a.5165.5165 0 0 0 .0142.0227c3.4166 5.2356 9.3253 8.6947 16.042 8.6947 5.4443 0 10.3576-2.2734 13.8423-5.9228 1.3192-1.1659 3.0516-1.8731 4.9488-1.8731.0937 0 .1874.0029.2811.0057.0242-.3962.0384-.7966.0384-1.1999 0-5.1831-2.0605-9.8833-5.406-13.3311z"/></svg>
