<svg xmlns="http://www.w3.org/2000/svg" xml:space="preserve" viewBox="0 0 100 100"><path fill="#3ea8ff" d="M15.1052 85h14.8194c.7846 0 1.482-.4359 1.9178-1.046l40.797-67.0362c.523-.8717-.0871-1.9178-1.1332-1.9178H57.4713c-.6974 0-1.3076.3487-1.6563.9589L14.4078 83.7796c-.2615.523.0872 1.2204.6974 1.2204zm51.0834-1.046L85.454 53.0074c.6102-.959-.0872-2.1794-1.2205-2.1794H70.2858c-.523 0-1.0461.2616-1.3076.6974l-19.7883 31.644c-.523.7845.0871 1.8306 1.046 1.8306h14.2093c.6973 0 1.3947-.3487 1.7434-1.046z" class="st0"/></svg>
